<svg xmlns="http://www.w3.org/2000/svg" xmlns:xlink="http://www.w3.org/1999/xlink" version="1.1" width="256" height="256" viewBox="0 0 256 256" xml:space="preserve">

<defs>
</defs>
<g style="stroke: none; stroke-width: 0; stroke-dasharray: none; stroke-linecap: butt; stroke-linejoin: miter; stroke-miterlimit: 10; fill: none; fill-rule: nonzero; opacity: 1;" transform="translate(1.4065934065934016 1.4065934065934016) scale(2.81 2.81)" >
	<path d="M 89.317 52.775 C 89.757 50.248 90 47.653 90 45 c 0 -0.564 -0.01 -1.125 -0.031 -1.683 c -0.138 -3.747 -3.734 -7.378 -4.734 -10.837 c -1.112 -3.848 0.275 -7.484 -1.762 -10.833 C 75.579 8.668 61.302 0 45 0 c -7.942 0 -15.404 2.058 -21.881 5.669 c -4.293 2.393 -6.153 6.469 -9.434 10.081 c -3.307 3.64 -8.026 6.824 -10.006 11.402 C 1.312 32.624 0 38.659 0 45 c 0 2.653 0.243 5.248 0.683 7.775 C 28.51 59.795 57.948 60.231 89.317 52.775 z" style="stroke: none; stroke-width: 1; stroke-dasharray: none; stroke-linecap: butt; stroke-linejoin: miter; stroke-miterlimit: 10; fill: rgb(190,235,255); fill-rule: nonzero; opacity: 1;" transform=" matrix(1 0 0 1 0 0) " stroke-linecap="round" />
	<path d="M 83.473 21.647 h -7.697 c -2.245 0 -4.178 1.312 -5.091 3.208 H 49.155 c -3.122 0 -5.652 2.531 -5.652 5.653 c 0 3.122 2.531 5.653 5.652 5.653 h 14.427 c -0.132 0.48 -0.209 0.983 -0.209 1.504 c 0 3.122 2.531 5.653 5.652 5.653 h 20.932 C 89.666 35.402 87.341 28.006 83.473 21.647 z" style="stroke: none; stroke-width: 1; stroke-dasharray: none; stroke-linecap: butt; stroke-linejoin: miter; stroke-miterlimit: 10; fill: rgb(225,249,255); fill-rule: nonzero; opacity: 1;" transform=" matrix(1 0 0 1 0 0) " stroke-linecap="round" />
	<path d="M 3.598 27.347 h 33.224 c 3.122 0 5.652 -2.531 5.652 -5.653 c 0 -3.122 -2.531 -5.653 -5.652 -5.653 h -8.13 c 1.526 -1.012 2.534 -2.744 2.534 -4.712 c 0 -3.122 -2.531 -5.653 -5.653 -5.653 h -2.45 C 14.443 10.516 7.529 18.14 3.598 27.347 z" style="stroke: none; stroke-width: 1; stroke-dasharray: none; stroke-linecap: butt; stroke-linejoin: miter; stroke-miterlimit: 10; fill: rgb(225,249,255); fill-rule: nonzero; opacity: 1;" transform=" matrix(1 0 0 1 0 0) " stroke-linecap="round" />
	<path d="M 0.683 52.775 C 4.369 73.92 22.8 90 45 90 s 40.631 -16.08 44.317 -37.225 H 0.683 z" style="stroke: none; stroke-width: 1; stroke-dasharray: none; stroke-linecap: butt; stroke-linejoin: miter; stroke-miterlimit: 10; fill: rgb(171,225,123); fill-rule: nonzero; opacity: 1;" transform=" matrix(1 0 0 1 0 0) " stroke-linecap="round" />
	<path d="M 64.843 11.258 h -0.498 c -0.239 -2.185 -2.069 -3.893 -4.319 -3.893 c -2.249 0 -4.08 1.707 -4.319 3.893 h -0.719 c -1.876 0 -3.397 1.521 -3.397 3.397 c 0 1.876 1.521 3.397 3.397 3.397 h 9.854 c 1.876 0 3.397 -1.521 3.397 -3.397 C 68.24 12.779 66.719 11.258 64.843 11.258 z" style="stroke: none; stroke-width: 1; stroke-dasharray: none; stroke-linecap: butt; stroke-linejoin: miter; stroke-miterlimit: 10; fill: rgb(225,249,255); fill-rule: nonzero; opacity: 1;" transform=" matrix(1 0 0 1 0 0) " stroke-linecap="round" />
	<circle cx="61.954" cy="49.534000000000006" r="17.844" style="stroke: none; stroke-width: 1; stroke-dasharray: none; stroke-linecap: butt; stroke-linejoin: miter; stroke-miterlimit: 10; fill: rgb(241,241,241); fill-rule: nonzero; opacity: 1;" transform="  matrix(1 0 0 1 0 0) "/>
	<path d="M 53.044 49.534 c 0 -7.113 3.44 -13.491 8.884 -17.843 c -9.845 0.012 -17.821 7.996 -17.821 17.843 s 7.977 17.831 17.821 17.843 C 56.484 63.025 53.044 56.647 53.044 49.534 z" style="stroke: none; stroke-width: 1; stroke-dasharray: none; stroke-linecap: butt; stroke-linejoin: miter; stroke-miterlimit: 10; fill: rgb(219,219,219); fill-rule: nonzero; opacity: 1;" transform=" matrix(1 0 0 1 0 0) " stroke-linecap="round" />
	<path d="M 79.444 49.104 l -4.648 0.35 l -5.368 -4.794 V 39.38 l 5.512 -1.593 c -0.3 -0.332 -0.615 -0.649 -0.939 -0.956 l -5.451 1.575 l -5.22 -2.139 l -1.025 -4.238 c -0.116 -0.002 -0.231 -0.009 -0.347 -0.009 c -0.289 0 -0.577 0.008 -0.863 0.022 l 1.065 4.407 l -4.004 4.758 l -3.4 0.707 l 0 0 l -3.984 0.828 l -2.824 -3.707 c -0.001 0.001 -0.002 0.003 -0.003 0.004 c -1.132 1.553 -1.971 3.162 -2.543 4.821 c -0.014 0.042 -0.028 0.084 -0.043 0.126 c -0.024 0.071 -0.049 0.141 -0.072 0.212 c -0.031 0.098 -0.06 0.196 -0.09 0.294 c -0.052 0.174 -0.102 0.348 -0.149 0.524 c -0.001 0.004 -0.002 0.008 -0.003 0.012 c -0.018 0.067 -0.036 0.134 -0.053 0.201 c 0 0 0 0 0 0 s 0 0 0 0 c -0.059 0.235 -0.114 0.472 -0.164 0.711 c -0.005 0.022 -0.01 0.044 -0.014 0.066 c -0.056 0.275 -0.105 0.551 -0.148 0.83 c -0.004 0.029 -0.008 0.058 -0.012 0.087 c -0.017 0.116 -0.03 0.233 -0.044 0.349 c -0.013 0.101 -0.027 0.201 -0.038 0.303 c -0.001 0.013 -0.004 0.026 -0.005 0.039 c -0.01 0.092 -0.018 0.185 -0.027 0.278 c -0.014 0.155 -0.025 0.31 -0.035 0.466 c -0.001 0.017 -0.003 0.035 -0.004 0.052 c 0 0.003 0 0.005 -0.001 0.008 c -0.006 0.102 -0.013 0.204 -0.018 0.306 c -0.012 0.263 -0.02 0.527 -0.02 0.793 l 4.381 -0.451 l 5.135 5.941 v 4.606 l -4.055 2.597 c 0.296 0.281 0.599 0.555 0.914 0.815 l 3.737 -2.393 l 5.993 1.784 l 0.775 4.583 c 0.205 0.007 0.41 0.016 0.617 0.016 c 0.194 0 0.387 -0.008 0.58 -0.015 l -0.827 -4.892 l 2.845 -4.11 l 7.621 -1.033 l 2.52 4.541 c 0.026 -0.028 0.054 -0.055 0.08 -0.084 c 0.089 -0.094 0.174 -0.19 0.26 -0.286 c 1.241 -1.396 2.263 -2.99 3.009 -4.732 c 0.034 -0.081 0.068 -0.162 0.101 -0.244 c 0.043 -0.105 0.084 -0.212 0.125 -0.318 c 0.747 -1.985 1.139 -4.166 1.178 -6.539 C 79.448 49.235 79.446 49.17 79.444 49.104 z M 59.876 52.743 l -5.249 1.211 l -4.878 -5.643 l 1.239 -4.41 l 3.262 -0.678 v 0 l 4.098 -0.852 l 3.459 4.641 L 59.876 52.743 z M 72.104 55.782 l -7.829 1.061 L 61 53.101 l 1.928 -5.719 l 5.835 -1.732 l 5.029 4.491 L 72.104 55.782 z" style="stroke: none; stroke-width: 1; stroke-dasharray: none; stroke-linecap: butt; stroke-linejoin: miter; stroke-miterlimit: 10; fill: rgb(53,73,94); fill-rule: nonzero; opacity: 1;" transform=" matrix(1 0 0 1 0 0) " stroke-linecap="round" />
	<path d="M 61.95 67.378 c -9.839 0 -17.844 -8.005 -17.844 -17.844 c 0 -9.839 8.005 -17.844 17.844 -17.844 c 9.839 0 17.844 8.005 17.844 17.844 C 79.794 59.373 71.789 67.378 61.95 67.378 z M 61.95 32.73 c -9.266 0 -16.804 7.538 -16.804 16.804 s 7.538 16.804 16.804 16.804 S 78.754 58.8 78.754 49.534 S 71.216 32.73 61.95 32.73 z" style="stroke: none; stroke-width: 1; stroke-dasharray: none; stroke-linecap: butt; stroke-linejoin: miter; stroke-miterlimit: 10; fill: rgb(53,73,94); fill-rule: nonzero; opacity: 1;" transform=" matrix(1 0 0 1 0 0) " stroke-linecap="round" />
	<path d="M 53.228 52.336 l -3.479 -4.025 l 1.239 -4.41 l 2.975 -0.618 c 0.131 -0.436 0.273 -0.868 0.43 -1.294 l -3.621 0.753 l -2.824 -3.707 c -0.001 0.001 -0.002 0.003 -0.003 0.004 c -1.132 1.553 -1.971 3.162 -2.543 4.821 c -0.014 0.042 -0.028 0.084 -0.043 0.126 c -0.024 0.071 -0.049 0.141 -0.072 0.212 c -0.031 0.098 -0.06 0.196 -0.09 0.294 c -0.052 0.174 -0.102 0.348 -0.149 0.524 c -0.001 0.004 -0.002 0.008 -0.003 0.012 c -0.018 0.067 -0.036 0.134 -0.053 0.201 c 0 0 0 0 0 0 s 0 0 0 0 c -0.059 0.235 -0.114 0.472 -0.164 0.711 c -0.005 0.022 -0.01 0.044 -0.014 0.066 c -0.056 0.275 -0.105 0.551 -0.148 0.83 c -0.004 0.029 -0.008 0.058 -0.012 0.087 c -0.017 0.116 -0.03 0.233 -0.044 0.349 c -0.013 0.101 -0.027 0.201 -0.038 0.303 c -0.001 0.013 -0.004 0.026 -0.005 0.039 c -0.01 0.092 -0.018 0.185 -0.027 0.278 c -0.014 0.155 -0.025 0.31 -0.035 0.466 c -0.001 0.017 -0.003 0.035 -0.004 0.052 c 0 0.003 0 0.005 -0.001 0.008 c -0.006 0.102 -0.013 0.204 -0.018 0.306 c -0.012 0.263 -0.02 0.527 -0.02 0.793 l 4.381 -0.451 l 4.806 5.56 C 53.468 53.875 53.329 53.111 53.228 52.336 z" style="stroke: none; stroke-width: 1; stroke-dasharray: none; stroke-linecap: butt; stroke-linejoin: miter; stroke-miterlimit: 10; fill: rgb(44,62,80); fill-rule: nonzero; opacity: 1;" transform=" matrix(1 0 0 1 0 0) " stroke-linecap="round" />
	<path d="M 61.095 32.041 l 0.071 0.292 c 0.118 -0.102 0.239 -0.202 0.359 -0.303 C 61.381 32.034 61.237 32.034 61.095 32.041 z" style="stroke: none; stroke-width: 1; stroke-dasharray: none; stroke-linecap: butt; stroke-linejoin: miter; stroke-miterlimit: 10; fill: rgb(44,62,80); fill-rule: nonzero; opacity: 1;" transform=" matrix(1 0 0 1 0 0) " stroke-linecap="round" />
	<path d="M 61.319 66.865 l 0.022 0.133 c 0.046 0.002 0.093 0.002 0.139 0.004 C 61.426 66.955 61.372 66.91 61.319 66.865 z" style="stroke: none; stroke-width: 1; stroke-dasharray: none; stroke-linecap: butt; stroke-linejoin: miter; stroke-miterlimit: 10; fill: rgb(44,62,80); fill-rule: nonzero; opacity: 1;" transform=" matrix(1 0 0 1 0 0) " stroke-linecap="round" />
	<path d="M 54.573 60.63 l 1.83 0.545 c -1.033 -1.666 -1.857 -3.454 -2.426 -5.339 v 3.775 l -4.055 2.597 c 0.296 0.281 0.599 0.555 0.914 0.815 L 54.573 60.63 z" style="stroke: none; stroke-width: 1; stroke-dasharray: none; stroke-linecap: butt; stroke-linejoin: miter; stroke-miterlimit: 10; fill: rgb(44,62,80); fill-rule: nonzero; opacity: 1;" transform=" matrix(1 0 0 1 0 0) " stroke-linecap="round" />
	<path d="M 60.659 66.284 c -8.664 -0.662 -15.513 -7.919 -15.513 -16.75 c 0 -8.831 6.849 -16.087 15.513 -16.75 c 0.411 -0.376 0.831 -0.744 1.269 -1.094 c -0.307 0 -0.612 0.009 -0.915 0.024 c -0.038 0.002 -0.075 0.006 -0.112 0.009 c -0.264 0.015 -0.527 0.034 -0.787 0.061 c -0.181 0.019 -0.36 0.045 -0.539 0.069 c -0.114 0.015 -0.23 0.027 -0.343 0.044 c -8.216 1.261 -14.601 8.148 -15.092 16.59 c -0.02 0.347 -0.033 0.695 -0.033 1.047 c 0 0.345 0.012 0.687 0.031 1.027 c 0.482 8.452 6.872 15.349 15.095 16.611 c 0.076 0.012 0.153 0.019 0.229 0.029 c 0.217 0.03 0.434 0.061 0.653 0.083 c 0.231 0.024 0.464 0.039 0.697 0.054 c 0.068 0.004 0.134 0.012 0.202 0.015 c 0.287 0.015 0.576 0.022 0.866 0.023 c 0.016 0 0.031 0.001 0.047 0.001 C 61.49 67.027 61.07 66.659 60.659 66.284 z" style="stroke: none; stroke-width: 1; stroke-dasharray: none; stroke-linecap: butt; stroke-linejoin: miter; stroke-miterlimit: 10; fill: rgb(44,62,80); fill-rule: nonzero; opacity: 1;" transform=" matrix(1 0 0 1 0 0) " stroke-linecap="round" />
	<path d="M 61.95 67.466 c -9.888 0 -17.931 -8.044 -17.931 -17.931 s 8.044 -17.931 17.931 -17.931 s 17.931 8.044 17.931 17.931 S 71.838 67.466 61.95 67.466 z M 61.95 31.778 c -9.791 0 -17.756 7.965 -17.756 17.756 s 7.966 17.756 17.756 17.756 s 17.756 -7.965 17.756 -17.756 S 71.741 31.778 61.95 31.778 z" style="stroke: none; stroke-width: 1; stroke-dasharray: none; stroke-linecap: butt; stroke-linejoin: miter; stroke-miterlimit: 10; fill: rgb(53,73,94); fill-rule: nonzero; opacity: 1;" transform=" matrix(1 0 0 1 0 0) " stroke-linecap="round" />
	<path d="M 18.191 8.858 c -0.669 18.407 4.028 28.245 0.439 36.049 l 14.282 5 c -1.539 -5.269 5.729 -30.975 5.997 -49.485 C 31.216 1.463 24.138 4.439 18.191 8.858 z" style="stroke: none; stroke-width: 1; stroke-dasharray: none; stroke-linecap: butt; stroke-linejoin: miter; stroke-miterlimit: 10; fill: rgb(255,221,176); fill-rule: nonzero; opacity: 1;" transform=" matrix(1 0 0 1 0 0) " stroke-linecap="round" />
	<path d="M 37.724 16.624 l -19.942 -3.057 c 0.264 15.579 3.853 24.547 0.511 31.815 l 14.81 5.185 C 31.957 46.643 35.52 31.793 37.724 16.624 z" style="stroke: none; stroke-width: 1; stroke-dasharray: none; stroke-linecap: butt; stroke-linejoin: miter; stroke-miterlimit: 10; fill: rgb(249,249,249); fill-rule: nonzero; opacity: 1;" transform=" matrix(1 0 0 1 0 0) " stroke-linecap="round" />
	<path d="M 23.672 47.265 c 2.98 -7.887 -0.057 -17.55 -0.875 -32.93 l -5.015 -0.769 c 0.264 15.579 3.853 24.547 0.511 31.815 L 23.672 47.265 z" style="stroke: none; stroke-width: 1; stroke-dasharray: none; stroke-linecap: butt; stroke-linejoin: miter; stroke-miterlimit: 10; fill: rgb(241,241,241); fill-rule: nonzero; opacity: 1;" transform=" matrix(1 0 0 1 0 0) " stroke-linecap="round" />
	<path d="M 36.899 21.95 c 0.287 -1.76 0.566 -3.54 0.825 -5.326 l -19.942 -3.057 c 0.033 1.928 0.117 3.753 0.232 5.488 L 36.899 21.95 z" style="stroke: none; stroke-width: 1; stroke-dasharray: none; stroke-linecap: butt; stroke-linejoin: miter; stroke-miterlimit: 10; fill: rgb(247,62,66); fill-rule: nonzero; opacity: 1;" transform=" matrix(1 0 0 1 0 0) " stroke-linecap="round" />
	<path d="M 22.797 14.335 l -5.015 -0.769 c 0.033 1.928 0.117 3.753 0.232 5.488 l 5.173 0.793 C 23.03 18.098 22.899 16.256 22.797 14.335 z" style="stroke: none; stroke-width: 1; stroke-dasharray: none; stroke-linecap: butt; stroke-linejoin: miter; stroke-miterlimit: 10; fill: rgb(229,57,61); fill-rule: nonzero; opacity: 1;" transform=" matrix(1 0 0 1 0 0) " stroke-linecap="round" />
	<path d="M 18.189 13.632 l 4.608 0.703 l -0.159 -8.38 c -1.541 0.884 -3.03 1.849 -4.449 2.903 V 13.632 z" style="stroke: none; stroke-width: 1; stroke-dasharray: none; stroke-linecap: butt; stroke-linejoin: miter; stroke-miterlimit: 10; fill: rgb(242,216,170); fill-rule: nonzero; opacity: 1;" transform=" matrix(1 0 0 1 0 0) " stroke-linecap="round" />
	<path d="M 47.694 71.314 l -5.506 -7.658 c -3.086 -4.518 -5.938 -9.925 -8.714 -15.62 c -0.243 -0.498 -0.806 -0.751 -1.339 -0.602 c -3.786 1.056 -7.198 0.123 -10.153 -3.243 c -0.075 -0.085 -0.141 -0.186 -0.19 -0.288 c -0.785 -1.636 -1.151 -3.094 -1.236 -4.432 c -0.042 -0.669 -0.626 -1.199 -1.287 -1.091 c -1.058 0.172 -2.322 1.064 -3.88 2.98 c -0.022 0.027 -0.044 0.056 -0.064 0.085 l -5.004 7.268 c -0.343 0.498 -0.241 1.177 0.233 1.553 l 1.572 1.245 l -0.669 1.351 c -0.153 0.309 -0.069 0.683 0.201 0.897 l 0.787 0.625 c 0.256 0.203 0.615 0.212 0.88 0.022 l 1.289 -0.924 l 1.972 1.562 l -0.638 1.289 c -0.153 0.309 -0.069 0.683 0.201 0.897 l 0.787 0.625 c 0.256 0.203 0.615 0.212 0.88 0.022 l 1.232 -0.883 l 9.169 7.26 c 1.215 0.877 2.423 1.693 3.625 2.471 c -0.004 0.012 -0.011 0.022 -0.014 0.035 l -0.374 1.325 c -0.082 0.289 0.05 0.596 0.316 0.737 l 0.775 0.409 c 0.252 0.133 0.561 0.083 0.758 -0.122 l 0.884 -0.922 c 0.655 0.392 1.309 0.768 1.961 1.131 l -0.289 1.023 c -0.082 0.289 0.05 0.596 0.316 0.737 l 0.775 0.409 c 0.252 0.133 0.561 0.083 0.758 -0.122 l 0.769 -0.802 c 0.736 0.374 1.469 0.733 2.2 1.071 l -0.308 1.091 c -0.082 0.289 0.05 0.596 0.316 0.737 l 0.775 0.409 c 0.252 0.133 0.561 0.083 0.758 -0.122 l 0.969 -1.011 c 0.002 -0.003 0.004 -0.006 0.006 -0.008 c 0.584 0.24 1.167 0.474 1.748 0.691 C 47.562 74.536 49.33 73.358 47.694 71.314 z" style="stroke: none; stroke-width: 1; stroke-dasharray: none; stroke-linecap: butt; stroke-linejoin: miter; stroke-miterlimit: 10; fill: rgb(247,62,66); fill-rule: nonzero; opacity: 1;" transform=" matrix(1 0 0 1 0 0) " stroke-linecap="round" />
	<path d="M 17.484 52.529 l -6.374 -4.963 c 0 0 4.256 -6.18 4.278 -6.207 C 18.519 44.681 19.712 48.322 17.484 52.529 z" style="stroke: none; stroke-width: 1; stroke-dasharray: none; stroke-linecap: butt; stroke-linejoin: miter; stroke-miterlimit: 10; fill: rgb(229,57,61); fill-rule: nonzero; opacity: 1;" transform=" matrix(1 0 0 1 0 0) " stroke-linecap="round" />
	<path d="M 47.844 71.522 c -0.509 -0.014 -1.112 -0.15 -1.769 -0.431 c -5.447 -2.036 -11.016 -5.047 -16.723 -9.166 L 11.687 47.939 c -0.209 -0.165 -0.34 -0.39 -0.399 -0.631 l -0.967 1.404 c -0.343 0.498 -0.241 1.177 0.233 1.553 l 1.572 1.245 l -0.669 1.351 c -0.153 0.309 -0.069 0.683 0.201 0.897 l 0.787 0.625 c 0.256 0.203 0.615 0.212 0.88 0.022 l 1.289 -0.924 l 1.972 1.562 l -0.638 1.289 c -0.153 0.309 -0.069 0.683 0.201 0.897 l 0.787 0.625 c 0.256 0.203 0.615 0.212 0.88 0.022 l 1.232 -0.883 l 9.169 7.26 c 1.215 0.877 2.423 1.693 3.625 2.471 c -0.004 0.012 -0.011 0.022 -0.014 0.035 l -0.374 1.325 c -0.082 0.289 0.05 0.596 0.316 0.737 l 0.775 0.409 c 0.252 0.133 0.561 0.083 0.758 -0.122 l 0.884 -0.922 c 0.655 0.392 1.309 0.768 1.961 1.131 l -0.289 1.023 c -0.082 0.289 0.05 0.596 0.316 0.737 l 0.775 0.409 c 0.252 0.133 0.561 0.083 0.758 -0.122 l 0.769 -0.802 c 0.736 0.374 1.469 0.733 2.2 1.071 l -0.308 1.091 c -0.082 0.289 0.05 0.596 0.316 0.737 l 0.775 0.409 c 0.252 0.133 0.561 0.083 0.758 -0.122 l 0.969 -1.011 c 0.002 -0.003 0.004 -0.006 0.006 -0.008 c 0.584 0.24 1.167 0.474 1.748 0.691 C 47.471 74.497 49.196 73.435 47.844 71.522 z" style="stroke: none; stroke-width: 1; stroke-dasharray: none; stroke-linecap: butt; stroke-linejoin: miter; stroke-miterlimit: 10; fill: rgb(53,73,94); fill-rule: nonzero; opacity: 1;" transform=" matrix(1 0 0 1 0 0) " stroke-linecap="round" />
	<path d="M 21.172 55.45 l -9.486 -7.51 c -0.209 -0.165 -0.34 -0.39 -0.399 -0.631 l -0.967 1.404 c -0.343 0.498 -0.241 1.177 0.233 1.553 l 1.572 1.245 l -0.669 1.351 c -0.153 0.309 -0.069 0.683 0.201 0.897 l 0.787 0.625 c 0.256 0.203 0.615 0.212 0.88 0.022 l 1.289 -0.924 l 1.972 1.562 l -0.638 1.289 c -0.153 0.309 -0.069 0.683 0.201 0.897 l 0.787 0.625 c 0.256 0.203 0.615 0.212 0.88 0.022 l 1.232 -0.883 l 3.568 2.825 C 21.777 58.166 21.253 56.653 21.172 55.45 z" style="stroke: none; stroke-width: 1; stroke-dasharray: none; stroke-linecap: butt; stroke-linejoin: miter; stroke-miterlimit: 10; fill: rgb(44,62,80); fill-rule: nonzero; opacity: 1;" transform=" matrix(1 0 0 1 0 0) " stroke-linecap="round" />
	<path d="M 42.196 63.671 c -3.086 -4.518 -5.938 -9.925 -8.714 -15.62 c -0.243 -0.498 -0.806 -0.751 -1.339 -0.602 c -0.949 0.265 -1.874 0.404 -2.775 0.412 c 1.911 4.749 6.314 10.252 11.706 16.054 C 41.935 64.816 42.584 64.21 42.196 63.671 z" style="stroke: none; stroke-width: 1; stroke-dasharray: none; stroke-linecap: butt; stroke-linejoin: miter; stroke-miterlimit: 10; fill: rgb(229,57,61); fill-rule: nonzero; opacity: 1;" transform=" matrix(1 0 0 1 0 0) " stroke-linecap="round" />
	<circle cx="26.247999999999998" cy="53.077999999999996" r="3.168" style="stroke: none; stroke-width: 1; stroke-dasharray: none; stroke-linecap: butt; stroke-linejoin: miter; stroke-miterlimit: 10; fill: rgb(229,57,61); fill-rule: nonzero; opacity: 1;" transform="  matrix(1 0 0 1 0 0) "/>
	<path d="M 33.502 52.258 c -0.295 0 -0.549 -0.22 -0.585 -0.52 c -0.039 -0.323 0.192 -0.617 0.516 -0.657 l 1.608 -0.194 c 0.321 -0.036 0.617 0.193 0.657 0.516 c 0.039 0.323 -0.192 0.617 -0.516 0.657 l -1.608 0.194 C 33.549 52.257 33.526 52.258 33.502 52.258 z" style="stroke: none; stroke-width: 1; stroke-dasharray: none; stroke-linecap: butt; stroke-linejoin: miter; stroke-miterlimit: 10; fill: rgb(53,73,94); fill-rule: nonzero; opacity: 1;" transform=" matrix(1 0 0 1 0 0) " stroke-linecap="round" />
	<path d="M 34.629 54.489 c -0.295 0 -0.549 -0.22 -0.586 -0.52 c -0.039 -0.323 0.192 -0.617 0.516 -0.657 l 1.707 -0.205 c 0.318 -0.036 0.617 0.193 0.657 0.516 c 0.039 0.323 -0.192 0.617 -0.516 0.657 l -1.707 0.205 C 34.676 54.488 34.652 54.489 34.629 54.489 z" style="stroke: none; stroke-width: 1; stroke-dasharray: none; stroke-linecap: butt; stroke-linejoin: miter; stroke-miterlimit: 10; fill: rgb(53,73,94); fill-rule: nonzero; opacity: 1;" transform=" matrix(1 0 0 1 0 0) " stroke-linecap="round" />
	<path d="M 36.02 56.545 c -0.295 0 -0.549 -0.22 -0.586 -0.519 c -0.039 -0.324 0.192 -0.618 0.515 -0.657 l 1.362 -0.164 c 0.327 -0.037 0.618 0.193 0.657 0.515 c 0.039 0.324 -0.192 0.618 -0.515 0.657 l -1.362 0.164 C 36.067 56.544 36.044 56.545 36.02 56.545 z" style="stroke: none; stroke-width: 1; stroke-dasharray: none; stroke-linecap: butt; stroke-linejoin: miter; stroke-miterlimit: 10; fill: rgb(53,73,94); fill-rule: nonzero; opacity: 1;" transform=" matrix(1 0 0 1 0 0) " stroke-linecap="round" />
	<path d="M 37.594 58.722 c -0.295 0 -0.549 -0.22 -0.586 -0.519 c -0.039 -0.324 0.192 -0.618 0.515 -0.657 l 1.012 -0.122 c 0.325 -0.037 0.618 0.192 0.657 0.515 c 0.039 0.324 -0.192 0.618 -0.515 0.657 l -1.012 0.122 C 37.642 58.721 37.618 58.722 37.594 58.722 z" style="stroke: none; stroke-width: 1; stroke-dasharray: none; stroke-linecap: butt; stroke-linejoin: miter; stroke-miterlimit: 10; fill: rgb(53,73,94); fill-rule: nonzero; opacity: 1;" transform=" matrix(1 0 0 1 0 0) " stroke-linecap="round" />
</g>
</svg>